<mxfile host="app.diagrams.net" agent="Mozilla/5.0 (Windows NT 10.0; Win64; x64; rv:133.0) Gecko/20100101 Firefox/133.0" version="24.8.3">
  <diagram name="Page-1" id="4VszbNxZhJBaDLGHRhFc">
    <mxGraphModel dx="1050" dy="626" grid="1" gridSize="10" guides="1" tooltips="1" connect="1" arrows="1" fold="1" page="1" pageScale="1" pageWidth="827" pageHeight="1169" math="0" shadow="0">
      <root>
        <mxCell id="0" />
        <mxCell id="1" parent="0" />
        <mxCell id="tORgC9GXJxYb30P5ho2B-1" value="" style="verticalLabelPosition=bottom;shadow=0;dashed=0;align=center;html=1;verticalAlign=top;strokeWidth=1;shape=mxgraph.mockup.containers.userFemale;strokeColor=#666666;strokeColor2=#008cff;" vertex="1" parent="1">
          <mxGeometry x="110" y="230" width="100" height="100" as="geometry" />
        </mxCell>
        <mxCell id="tORgC9GXJxYb30P5ho2B-2" value="" style="verticalLabelPosition=bottom;shadow=0;dashed=0;align=center;html=1;verticalAlign=top;strokeWidth=1;shape=mxgraph.mockup.containers.userMale;strokeColor=#666666;strokeColor2=#008cff;" vertex="1" parent="1">
          <mxGeometry x="630" y="230" width="100" height="100" as="geometry" />
        </mxCell>
        <mxCell id="tORgC9GXJxYb30P5ho2B-7" style="edgeStyle=orthogonalEdgeStyle;rounded=0;orthogonalLoop=1;jettySize=auto;html=1;" edge="1" parent="1" source="tORgC9GXJxYb30P5ho2B-3" target="tORgC9GXJxYb30P5ho2B-2">
          <mxGeometry relative="1" as="geometry" />
        </mxCell>
        <mxCell id="tORgC9GXJxYb30P5ho2B-3" value="" style="html=1;verticalLabelPosition=bottom;align=center;labelBackgroundColor=#ffffff;verticalAlign=top;strokeWidth=2;strokeColor=#0080F0;shadow=0;dashed=0;shape=mxgraph.ios7.icons.mail;" vertex="1" parent="1">
          <mxGeometry x="380" y="261" width="81" height="38" as="geometry" />
        </mxCell>
        <mxCell id="tORgC9GXJxYb30P5ho2B-6" style="edgeStyle=orthogonalEdgeStyle;rounded=0;orthogonalLoop=1;jettySize=auto;html=1;entryX=0;entryY=0.5;entryDx=0;entryDy=0;entryPerimeter=0;" edge="1" parent="1" source="tORgC9GXJxYb30P5ho2B-1" target="tORgC9GXJxYb30P5ho2B-3">
          <mxGeometry relative="1" as="geometry" />
        </mxCell>
        <mxCell id="tORgC9GXJxYb30P5ho2B-12" style="edgeStyle=orthogonalEdgeStyle;rounded=0;orthogonalLoop=1;jettySize=auto;html=1;" edge="1" parent="1" source="tORgC9GXJxYb30P5ho2B-9">
          <mxGeometry relative="1" as="geometry">
            <mxPoint x="290" y="250" as="targetPoint" />
          </mxGeometry>
        </mxCell>
        <mxCell id="tORgC9GXJxYb30P5ho2B-13" style="edgeStyle=orthogonalEdgeStyle;rounded=0;orthogonalLoop=1;jettySize=auto;html=1;" edge="1" parent="1" source="tORgC9GXJxYb30P5ho2B-9">
          <mxGeometry relative="1" as="geometry">
            <mxPoint x="560" y="250" as="targetPoint" />
          </mxGeometry>
        </mxCell>
        <mxCell id="tORgC9GXJxYb30P5ho2B-9" value="" style="points=[[0,0.5,0],[0.24,0,0],[0.5,0.28,0],[0.995,0.475,0],[0.5,0.72,0],[0.24,1,0]];verticalLabelPosition=bottom;sketch=0;html=1;verticalAlign=top;aspect=fixed;align=center;pointerEvents=1;shape=mxgraph.cisco19.key;fillColor=#005073;strokeColor=none;" vertex="1" parent="1">
          <mxGeometry x="358" y="90" width="111.11" height="50" as="geometry" />
        </mxCell>
        <mxCell id="tORgC9GXJxYb30P5ho2B-10" value="&lt;font style=&quot;font-size: 14px;&quot;&gt;Alice&lt;/font&gt;" style="text;html=1;align=center;verticalAlign=middle;resizable=0;points=[];autosize=1;strokeColor=none;fillColor=none;" vertex="1" parent="1">
          <mxGeometry x="135" y="340" width="50" height="30" as="geometry" />
        </mxCell>
        <mxCell id="tORgC9GXJxYb30P5ho2B-11" value="&lt;font style=&quot;font-size: 14px;&quot;&gt;Bob&lt;/font&gt;" style="text;html=1;align=center;verticalAlign=middle;resizable=0;points=[];autosize=1;strokeColor=none;fillColor=none;" vertex="1" parent="1">
          <mxGeometry x="655" y="340" width="50" height="30" as="geometry" />
        </mxCell>
        <mxCell id="tORgC9GXJxYb30P5ho2B-14" value="&lt;font style=&quot;font-size: 13px;&quot;&gt;Chiffrement&lt;/font&gt;" style="text;html=1;align=center;verticalAlign=middle;resizable=0;points=[];autosize=1;strokeColor=none;fillColor=none;" vertex="1" parent="1">
          <mxGeometry x="245" y="248" width="90" height="30" as="geometry" />
        </mxCell>
        <mxCell id="tORgC9GXJxYb30P5ho2B-15" value="&lt;font style=&quot;font-size: 13px;&quot;&gt;DÃ©chiffrement&lt;/font&gt;" style="text;html=1;align=center;verticalAlign=middle;resizable=0;points=[];autosize=1;strokeColor=none;fillColor=none;" vertex="1" parent="1">
          <mxGeometry x="510" y="248" width="100" height="30" as="geometry" />
        </mxCell>
      </root>
    </mxGraphModel>
  </diagram>
</mxfile>
